<svg width="1687.5" height="212.99" viewBox="0 0 1687.5 212.99" xmlns="http://www.w3.org/2000/svg"><g id="svgGroup" stroke-linecap="round" fill-rule="nonzero" font-size="9pt" stroke="#000" stroke-width="0.25mm" fill="#000" style="stroke:#000;stroke-width:0.25mm;fill:#000"><path d="M 1198.389 132.569 L 1199.561 211.085 L 1179.639 211.085 L 1179.639 1.905 L 1216.992 1.905 L 1233.252 68.263 L 1260.352 192.335 L 1268.555 192.335 L 1265.186 78.37 L 1264.16 1.905 L 1284.229 1.905 L 1284.229 211.085 L 1245.85 211.085 L 1227.393 137.11 L 1204.102 20.509 L 1195.313 20.509 L 1198.389 132.569 Z M 1414.893 75.294 L 1394.531 75.294 Q 1395.264 65.333 1395.337 54.566 A 242.797 242.797 0 0 0 1395.343 52.915 Q 1395.343 43.034 1394.531 33.839 A 15.117 15.117 0 0 0 1392.813 27.627 Q 1390.762 23.836 1386.328 21.534 A 27.378 27.378 0 0 0 1380.752 19.449 Q 1373.721 17.579 1362.744 17.579 A 106.562 106.562 0 0 0 1354.384 17.883 Q 1344.351 18.676 1338.794 21.534 A 16.032 16.032 0 0 0 1334.301 24.858 Q 1331.271 28.132 1330.863 32.963 A 17.795 17.795 0 0 0 1330.811 33.839 A 2109.778 2109.778 0 0 0 1329.708 102.14 A 2128.015 2128.015 0 0 0 1329.712 106.422 Q 1329.785 142.823 1330.811 178.858 A 15.5 15.5 0 0 0 1332.075 184.682 Q 1333.949 188.889 1338.574 191.383 A 25.174 25.174 0 0 0 1343.862 193.42 Q 1351.133 195.411 1363.184 195.411 Q 1380.176 195.411 1388.232 191.383 A 17.392 17.392 0 0 0 1392.889 188.085 Q 1396.378 184.548 1396.848 179.205 A 18.429 18.429 0 0 0 1396.875 178.858 A 1352.329 1352.329 0 0 0 1397.021 158.973 A 1337.442 1337.442 0 0 0 1396.875 139.161 L 1362.451 139.161 L 1362.451 120.704 L 1416.65 120.704 Q 1417.383 130.958 1417.529 144.581 Q 1417.676 158.204 1416.797 175.489 A 50.805 50.805 0 0 1 1415.458 186.404 Q 1413.803 193.192 1410.127 198.104 A 27.317 27.317 0 0 1 1403.687 204.273 A 39.326 39.326 0 0 1 1393.739 209.055 Q 1383.655 212.401 1368.619 212.901 A 163.609 163.609 0 0 1 1363.184 212.989 Q 1335.352 212.989 1323.193 204.273 A 28.413 28.413 0 0 1 1312.835 189.921 Q 1310.687 183.642 1310.449 175.489 Q 1309.131 141.944 1309.131 106.715 A 1738.758 1738.758 0 0 1 1310.29 42.398 A 1595.527 1595.527 0 0 1 1310.449 38.233 Q 1310.83 24.806 1316.102 16.394 A 26.919 26.919 0 0 1 1323.193 8.79 A 36.728 36.728 0 0 1 1332.812 3.969 Q 1342.51 0.631 1357.074 0.101 A 156.05 156.05 0 0 1 1362.744 0.001 Q 1389.404 0.001 1401.636 8.644 A 29.057 29.057 0 0 1 1412.21 22.883 Q 1414.476 29.115 1414.893 37.208 A 188.012 188.012 0 0 1 1415.704 54.765 A 196.111 196.111 0 0 1 1415.698 56.251 A 270.784 270.784 0 0 1 1414.893 75.294 Z M 337.207 75.587 L 316.846 75.587 A 758.471 758.471 0 0 0 317.084 65.626 A 976.915 976.915 0 0 0 317.212 54.786 Q 317.285 43.507 316.846 33.985 A 17.108 17.108 0 0 0 316.005 28.768 A 12.866 12.866 0 0 0 309.595 21.388 A 23.142 23.142 0 0 0 304.782 19.547 Q 299.579 18.124 291.587 17.73 A 132.979 132.979 0 0 0 285.059 17.579 A 107.146 107.146 0 0 0 277.647 17.817 Q 270.334 18.326 265.638 19.924 A 20.242 20.242 0 0 0 262.28 21.388 A 13.495 13.495 0 0 0 255.418 30.865 A 20.292 20.292 0 0 0 255.029 33.985 Q 252.686 106.495 255.029 179.151 A 17.839 17.839 0 0 0 256.074 184.503 A 13.514 13.514 0 0 0 262.28 191.676 A 21.886 21.886 0 0 0 267.082 193.617 Q 272.136 195.065 279.818 195.433 A 116.012 116.012 0 0 0 285.352 195.558 A 136.922 136.922 0 0 0 293.825 195.315 Q 301.916 194.811 307.065 193.26 A 22.71 22.71 0 0 0 311.06 191.676 Q 317.65 188.218 318.718 180.981 A 19.212 19.212 0 0 0 318.896 179.151 A 264.393 264.393 0 0 0 319.121 170.504 Q 319.18 164.692 319.009 158.441 A 363.357 363.357 0 0 0 318.97 157.105 A 2083.597 2083.597 0 0 0 318.585 145.698 A 1690.967 1690.967 0 0 0 318.164 135.06 L 338.965 135.06 A 358.102 358.102 0 0 1 339.844 155.348 A 229.834 229.834 0 0 1 339.868 158.703 A 243.109 243.109 0 0 1 339.258 175.782 A 51.848 51.848 0 0 1 337.71 186.617 Q 335.947 193.354 332.26 198.227 A 27.707 27.707 0 0 1 325.854 204.347 Q 314.671 212.064 291.164 212.89 A 165.602 165.602 0 0 1 285.352 212.989 A 131.707 131.707 0 0 1 272.185 212.379 Q 255.471 210.694 246.973 204.347 A 28.095 28.095 0 0 1 237.47 191.288 Q 235.71 186.572 235.036 180.724 A 63.626 63.626 0 0 1 234.668 175.782 A 1821.865 1821.865 0 0 1 233.35 106.495 A 1821.865 1821.865 0 0 1 234.668 37.208 A 46.757 46.757 0 0 1 236.47 25.75 A 31.86 31.86 0 0 1 247.119 9.596 Q 258.838 0.147 285.059 0.147 A 135.154 135.154 0 0 1 298.778 0.794 Q 315.543 2.511 324.536 8.79 A 28.395 28.395 0 0 1 335.323 23.755 Q 337.276 29.728 337.5 37.355 Q 337.793 42.189 337.793 49.293 Q 337.793 56.397 337.573 63.502 Q 337.422 68.386 337.306 72.267 A 5592.272 5592.272 0 0 0 337.207 75.587 Z M 627.246 75.587 L 606.885 75.587 A 758.471 758.471 0 0 0 607.123 65.626 A 976.915 976.915 0 0 0 607.251 54.786 Q 607.324 43.507 606.885 33.985 A 17.108 17.108 0 0 0 606.044 28.768 A 12.866 12.866 0 0 0 599.634 21.388 A 23.142 23.142 0 0 0 594.821 19.547 Q 589.618 18.124 581.626 17.73 A 132.979 132.979 0 0 0 575.098 17.579 A 107.146 107.146 0 0 0 567.686 17.817 Q 560.373 18.326 555.677 19.924 A 20.242 20.242 0 0 0 552.319 21.388 A 13.495 13.495 0 0 0 545.457 30.865 A 20.292 20.292 0 0 0 545.068 33.985 Q 542.725 106.495 545.068 179.151 A 17.839 17.839 0 0 0 546.113 184.503 A 13.514 13.514 0 0 0 552.319 191.676 A 21.886 21.886 0 0 0 557.121 193.617 Q 562.175 195.065 569.857 195.433 A 116.012 116.012 0 0 0 575.391 195.558 A 136.922 136.922 0 0 0 583.864 195.315 Q 591.956 194.811 597.104 193.26 A 22.71 22.71 0 0 0 601.099 191.676 Q 607.689 188.218 608.757 180.981 A 19.212 19.212 0 0 0 608.936 179.151 A 264.393 264.393 0 0 0 609.16 170.504 Q 609.219 164.692 609.048 158.441 A 363.357 363.357 0 0 0 609.009 157.105 A 2083.597 2083.597 0 0 0 608.624 145.698 A 1690.967 1690.967 0 0 0 608.203 135.06 L 629.004 135.06 A 358.102 358.102 0 0 1 629.883 155.348 A 229.834 229.834 0 0 1 629.907 158.703 A 243.109 243.109 0 0 1 629.297 175.782 A 51.848 51.848 0 0 1 627.749 186.617 Q 625.986 193.354 622.299 198.227 A 27.707 27.707 0 0 1 615.894 204.347 Q 604.71 212.064 581.203 212.89 A 165.602 165.602 0 0 1 575.391 212.989 A 131.707 131.707 0 0 1 562.224 212.379 Q 545.51 210.694 537.012 204.347 A 28.095 28.095 0 0 1 527.509 191.288 Q 525.749 186.572 525.075 180.724 A 63.626 63.626 0 0 1 524.707 175.782 A 1821.865 1821.865 0 0 1 523.389 106.495 A 1821.865 1821.865 0 0 1 524.707 37.208 A 46.757 46.757 0 0 1 526.509 25.75 A 31.86 31.86 0 0 1 537.158 9.596 Q 548.877 0.147 575.098 0.147 A 135.154 135.154 0 0 1 588.817 0.794 Q 605.582 2.511 614.575 8.79 A 28.395 28.395 0 0 1 625.362 23.755 Q 627.315 29.728 627.539 37.355 Q 627.832 42.189 627.832 49.293 Q 627.832 56.397 627.612 63.502 Q 627.461 68.386 627.345 72.267 A 5592.272 5592.272 0 0 0 627.246 75.587 Z M 137.402 153.077 L 128.32 211.085 L 107.52 211.085 L 140.625 1.905 L 182.52 1.905 L 215.918 211.085 L 195.117 211.085 L 186.035 153.077 L 137.402 153.077 Z M 156.006 20.655 L 145.898 88.771 L 139.307 134.327 L 184.131 134.327 L 177.832 88.624 L 167.578 20.655 L 156.006 20.655 Z M 674.854 153.077 L 665.771 211.085 L 644.971 211.085 L 678.076 1.905 L 719.971 1.905 L 753.369 211.085 L 732.568 211.085 L 723.486 153.077 L 674.854 153.077 Z M 693.457 20.655 L 683.35 88.771 L 676.758 134.327 L 721.582 134.327 L 715.283 88.624 L 705.029 20.655 L 693.457 20.655 Z M 1082.08 153.077 L 1072.998 211.085 L 1052.197 211.085 L 1085.303 1.905 L 1127.197 1.905 L 1160.596 211.085 L 1139.795 211.085 L 1130.713 153.077 L 1082.08 153.077 Z M 1100.684 20.655 L 1090.576 88.771 L 1083.984 134.327 L 1128.809 134.327 L 1122.51 88.624 L 1112.256 20.655 L 1100.684 20.655 Z M 1462.207 153.077 L 1453.125 211.085 L 1432.324 211.085 L 1465.43 1.905 L 1507.324 1.905 L 1540.723 211.085 L 1519.922 211.085 L 1510.84 153.077 L 1462.207 153.077 Z M 1480.811 20.655 L 1470.703 88.771 L 1464.111 134.327 L 1508.936 134.327 L 1502.637 88.624 L 1492.383 20.655 L 1480.811 20.655 Z M 60.352 20.655 L 60.352 211.085 L 39.99 211.085 L 39.99 20.655 L 0 20.655 L 0 1.905 L 100.488 1.905 L 100.488 20.655 L 60.352 20.655 Z M 410.596 20.655 L 410.596 211.085 L 390.234 211.085 L 390.234 20.655 L 350.244 20.655 L 350.244 1.905 L 450.732 1.905 L 450.732 20.655 L 410.596 20.655 Z M 982.031 211.085 L 932.373 211.085 L 932.373 1.905 L 981.592 1.905 Q 1009.277 1.905 1021.729 10.401 A 28.356 28.356 0 0 1 1032.794 25.612 Q 1034.354 30.427 1034.789 36.311 A 60.735 60.735 0 0 1 1034.912 38.526 A 567.956 567.956 0 0 1 1035.242 49.046 Q 1035.461 59.172 1035.242 67.723 A 265.054 265.054 0 0 1 1034.912 75.88 A 29.565 29.565 0 0 1 1031.68 88.516 Q 1027.952 95.525 1019.987 99.61 A 45.3 45.3 0 0 1 1009.717 103.272 L 1009.717 108.253 A 55.622 55.622 0 0 1 1017.178 110.449 Q 1020.905 111.857 1023.8 113.707 A 24.048 24.048 0 0 1 1028.76 117.848 A 23.584 23.584 0 0 1 1033.755 126.899 Q 1034.816 130.378 1035.119 134.526 A 44.768 44.768 0 0 1 1035.205 136.085 Q 1035.938 146.339 1035.938 155.201 A 243.671 243.671 0 0 1 1035.754 164.448 A 310.889 310.889 0 0 1 1035.205 174.464 A 49.131 49.131 0 0 1 1033.664 185.323 Q 1031.784 192.344 1027.678 197.305 A 27.692 27.692 0 0 1 1021.948 202.516 Q 1010.603 210.279 987.056 211.009 A 162.084 162.084 0 0 1 982.031 211.085 Z M 979.541 114.991 L 952.734 114.991 L 952.734 192.335 L 982.031 192.335 A 97.718 97.718 0 0 0 990.659 191.982 Q 1000.809 191.078 1006.494 187.867 Q 1013.757 183.765 1014.722 175.65 A 20.973 20.973 0 0 0 1014.844 174.171 Q 1016.309 155.567 1014.844 136.964 A 28.07 28.07 0 0 0 1013.892 130.452 A 17.055 17.055 0 0 0 1006.128 119.972 Q 999.118 115.754 984.912 115.108 A 118.439 118.439 0 0 0 979.541 114.991 Z M 981.592 20.655 L 952.734 20.655 L 952.734 96.241 L 981.299 96.241 A 89.542 89.542 0 0 0 989.901 95.858 Q 998.512 95.024 1003.854 92.373 A 20.603 20.603 0 0 0 1006.055 91.114 A 18.338 18.338 0 0 0 1014.029 79.108 A 27.324 27.324 0 0 0 1014.551 75.294 A 188.344 188.344 0 0 0 1015.503 56.397 A 188.344 188.344 0 0 0 1014.551 37.501 A 16.138 16.138 0 0 0 1012.696 31.043 Q 1010.834 27.64 1007.176 25.396 A 20.072 20.072 0 0 0 1006.055 24.757 A 27.36 27.36 0 0 0 1000.371 22.605 Q 993.105 20.655 981.592 20.655 Z M 857.666 192.335 L 857.666 211.085 L 772.559 211.085 L 772.559 1.905 L 792.92 1.905 L 792.92 192.335 L 857.666 192.335 Z M 1645.02 192.335 L 1645.02 211.085 L 1559.912 211.085 L 1559.912 1.905 L 1580.273 1.905 L 1580.273 192.335 L 1645.02 192.335 Z M 491.895 1.905 L 491.895 211.085 L 471.533 211.085 L 471.533 1.905 L 491.895 1.905 Z M 1687.5 1.905 L 1687.5 211.085 L 1667.139 211.085 L 1667.139 1.905 L 1687.5 1.905 Z" vector-effect="non-scaling-stroke"/></g></svg>