<svg width="1412.842" height="252.101" viewBox="0 0 1412.842 252.101" xmlns="http://www.w3.org/2000/svg"><g id="svgGroup" stroke-linecap="round" fill-rule="nonzero" font-size="9pt" stroke="#000" stroke-width="0.25mm" fill="#000" style="stroke:#000;stroke-width:0.25mm;fill:#000"><path d="M 337.207 75.44 L 316.846 75.44 A 758.471 758.471 0 0 0 317.084 65.479 A 976.915 976.915 0 0 0 317.212 54.64 Q 317.285 43.36 316.846 33.839 A 17.108 17.108 0 0 0 316.005 28.621 A 12.866 12.866 0 0 0 309.595 21.241 A 23.142 23.142 0 0 0 304.782 19.4 Q 299.579 17.977 291.587 17.583 A 132.979 132.979 0 0 0 285.059 17.433 A 107.146 107.146 0 0 0 277.647 17.671 Q 270.334 18.18 265.638 19.778 A 20.242 20.242 0 0 0 262.28 21.241 A 13.495 13.495 0 0 0 255.418 30.718 A 20.292 20.292 0 0 0 255.029 33.839 Q 252.686 106.349 255.029 179.005 A 17.839 17.839 0 0 0 256.074 184.357 A 13.514 13.514 0 0 0 262.28 191.529 A 21.886 21.886 0 0 0 267.082 193.471 Q 272.136 194.918 279.818 195.286 A 116.012 116.012 0 0 0 285.352 195.411 A 136.922 136.922 0 0 0 293.825 195.169 Q 301.916 194.665 307.065 193.114 A 22.71 22.71 0 0 0 311.06 191.529 Q 317.65 188.071 318.718 180.835 A 19.212 19.212 0 0 0 318.896 179.005 A 264.393 264.393 0 0 0 319.121 170.358 Q 319.18 164.545 319.009 158.294 A 363.357 363.357 0 0 0 318.97 156.959 A 2083.597 2083.597 0 0 0 318.585 145.551 A 1690.967 1690.967 0 0 0 318.164 134.913 L 338.965 134.913 A 358.102 358.102 0 0 1 339.844 155.201 A 229.834 229.834 0 0 1 339.868 158.556 A 243.109 243.109 0 0 1 339.258 175.636 A 51.848 51.848 0 0 1 337.71 186.47 Q 335.947 193.207 332.26 198.08 A 27.707 27.707 0 0 1 325.854 204.2 Q 314.671 211.918 291.164 212.744 A 165.602 165.602 0 0 1 285.352 212.843 A 131.707 131.707 0 0 1 272.185 212.233 Q 255.471 210.547 246.973 204.2 A 28.095 28.095 0 0 1 237.47 191.142 Q 235.71 186.425 235.036 180.578 A 63.626 63.626 0 0 1 234.668 175.636 A 1821.865 1821.865 0 0 1 233.35 106.349 A 1821.865 1821.865 0 0 1 234.668 37.062 A 46.757 46.757 0 0 1 236.47 25.604 A 31.86 31.86 0 0 1 247.119 9.449 Q 258.838 0.001 285.059 0.001 A 135.154 135.154 0 0 1 298.778 0.647 Q 315.543 2.364 324.536 8.644 A 28.395 28.395 0 0 1 335.323 23.608 Q 337.276 29.582 337.5 37.208 Q 337.793 42.042 337.793 49.146 Q 337.793 56.251 337.573 63.355 Q 337.422 68.24 337.306 72.12 A 5592.272 5592.272 0 0 0 337.207 75.44 Z M 1219.336 95.802 L 1219.336 210.938 L 1200.439 210.938 L 1200.439 68.409 L 1219.336 68.409 L 1219.336 81.739 L 1223.877 81.739 A 31.129 31.129 0 0 1 1235.815 70.46 Q 1242.169 67.063 1251.386 66.584 A 59.819 59.819 0 0 1 1254.492 66.505 A 60.069 60.069 0 0 1 1263.544 67.14 Q 1268.178 67.848 1271.886 69.346 A 24.237 24.237 0 0 1 1279.102 73.756 Q 1285.034 79.095 1286.598 89.716 A 57.002 57.002 0 0 1 1287.158 97.999 L 1287.158 210.938 L 1268.408 210.938 L 1268.408 96.388 Q 1268.408 89.063 1263.794 85.768 Q 1259.18 82.472 1248.926 82.472 Q 1238.672 82.472 1230.908 85.987 A 29.167 29.167 0 0 0 1224.684 89.745 A 22.887 22.887 0 0 0 1219.336 95.802 Z M 1328.906 210.06 L 1328.906 206.397 A 36.002 36.002 0 0 1 1323.235 204.743 Q 1320.445 203.648 1318.494 202.169 A 10.722 10.722 0 0 1 1313.965 193.8 Q 1313.818 191.31 1313.965 188.819 A 10.152 10.152 0 0 1 1317.348 181.505 A 14.638 14.638 0 0 1 1318.579 180.47 A 19.813 19.813 0 0 1 1328.613 176.515 L 1328.613 172.853 Q 1314.748 166.853 1312.652 147.627 A 62.393 62.393 0 0 1 1312.354 143.702 Q 1312.051 137.66 1311.853 132.69 A 696.723 696.723 0 0 1 1311.694 128.395 A 233.748 233.748 0 0 1 1311.562 120.52 A 241.595 241.595 0 0 1 1311.621 115.211 Q 1311.768 108.546 1312.354 99.464 Q 1312.828 88.165 1316.965 80.928 A 23.817 23.817 0 0 1 1322.534 74.269 Q 1331.387 66.994 1350.206 66.536 A 105.825 105.825 0 0 1 1352.783 66.505 A 108.223 108.223 0 0 1 1361.69 66.848 Q 1366.107 67.214 1369.826 67.97 A 42.736 42.736 0 0 1 1376.953 70.02 A 27.588 27.588 0 0 1 1383.805 73.843 A 21.996 21.996 0 0 1 1389.844 81.007 L 1393.945 81.007 A 12.636 12.636 0 0 1 1396.534 73.967 Q 1400.088 69.516 1408.407 68.63 A 41.939 41.939 0 0 1 1412.842 68.409 L 1412.842 84.815 L 1407.715 84.815 A 16.101 16.101 0 0 0 1401.974 85.758 Q 1394.94 88.432 1394.161 98.686 A 32.968 32.968 0 0 0 1394.092 99.903 L 1393.799 111.476 Q 1394.092 119.972 1394.092 126.856 Q 1394.092 131.59 1393.676 137.777 A 284.027 284.027 0 0 1 1393.213 143.702 Q 1392.764 154.559 1389.128 161.624 A 23.298 23.298 0 0 1 1383.252 169.044 A 27.056 27.056 0 0 1 1375.279 173.458 Q 1367.749 176.223 1356.455 176.601 A 109.802 109.802 0 0 1 1352.783 176.661 Q 1342.582 176.54 1337.012 177.928 A 20.288 20.288 0 0 0 1334.912 178.565 A 12.226 12.226 0 0 0 1332.477 179.756 Q 1331.058 180.677 1330.282 181.902 A 6.222 6.222 0 0 0 1329.346 185.304 L 1329.346 186.476 A 5.611 5.611 0 0 0 1331.828 190.771 Q 1332.764 191.452 1334.052 191.976 A 16.17 16.17 0 0 0 1335.498 192.481 A 31.615 31.615 0 0 0 1339.159 193.312 Q 1343.113 193.995 1349.001 194.313 A 184.87 184.87 0 0 0 1354.98 194.532 A 144.206 144.206 0 0 1 1367.336 195.358 Q 1380.355 196.836 1388.452 200.758 A 23.332 23.332 0 0 1 1395.93 206.293 Q 1399.82 210.719 1400.851 217.137 A 28.671 28.671 0 0 1 1401.123 219.435 L 1401.123 227.052 A 23.661 23.661 0 0 1 1398.665 236.236 Q 1395.884 241.627 1390.064 244.963 A 29.937 29.937 0 0 1 1387.061 246.461 A 61.5 61.5 0 0 1 1375.307 250.112 Q 1369.409 251.355 1362.543 251.821 A 126.943 126.943 0 0 1 1353.955 252.101 A 130.091 130.091 0 0 1 1341.311 251.525 Q 1335.25 250.932 1330.143 249.726 A 55.421 55.421 0 0 1 1321.875 247.12 A 27.64 27.64 0 0 1 1315.949 243.873 A 16.195 16.195 0 0 1 1308.984 231.446 A 22.983 22.983 0 0 0 1308.964 230.506 Q 1308.942 229.983 1308.899 229.394 A 44.663 44.663 0 0 0 1308.838 228.663 A 36.098 36.098 0 0 1 1308.701 226.164 A 40.89 40.89 0 0 1 1308.691 225.294 A 13.252 13.252 0 0 1 1313.966 215.797 A 18.83 18.83 0 0 1 1315.21 214.894 A 29.678 29.678 0 0 1 1326.292 210.453 A 35.713 35.713 0 0 1 1328.906 210.06 Z M 1352.783 160.108 A 68.034 68.034 0 0 0 1358.217 159.907 Q 1363.572 159.476 1366.98 158.124 A 13.455 13.455 0 0 0 1369.409 156.886 Q 1374.316 153.663 1374.756 146.339 Q 1375.345 137.97 1375.46 127.372 A 486.004 486.004 0 0 0 1375.488 122.096 A 457.601 457.601 0 0 0 1375.305 108.857 A 344.326 344.326 0 0 0 1374.756 96.827 A 19.783 19.783 0 0 0 1374.122 92.73 Q 1373.451 90.274 1372.112 88.507 A 10.121 10.121 0 0 0 1369.336 85.987 Q 1365.132 83.39 1356.23 82.986 A 76.005 76.005 0 0 0 1352.783 82.911 Q 1343.47 82.911 1338.426 84.951 A 13.74 13.74 0 0 0 1336.23 86.061 Q 1331.25 89.21 1330.664 96.974 A 499.698 499.698 0 0 0 1330.06 110.478 Q 1329.607 125.206 1330.173 137.849 A 265.541 265.541 0 0 0 1330.664 146.046 A 17.173 17.173 0 0 0 1331.603 150.539 A 12.231 12.231 0 0 0 1336.377 156.666 A 16.074 16.074 0 0 0 1340.404 158.554 Q 1345.205 160.108 1352.783 160.108 Z M 1326.416 220.167 L 1326.416 225.88 Q 1327.142 232.269 1334.488 234.412 A 19.919 19.919 0 0 0 1334.619 234.449 Q 1339.639 235.876 1346.84 236.345 A 116.793 116.793 0 0 0 1354.395 236.573 Q 1363.246 236.573 1369.82 235.416 A 47.674 47.674 0 0 0 1374.976 234.229 A 18.858 18.858 0 0 0 1378.481 232.841 Q 1380.35 231.853 1381.536 230.526 A 7.951 7.951 0 0 0 1383.545 225.88 A 23.657 23.657 0 0 0 1383.635 224.386 Q 1383.643 224.104 1383.643 223.829 A 18.121 18.121 0 0 0 1383.618 222.877 Q 1383.545 221.485 1383.545 220.02 A 8.051 8.051 0 0 0 1379.355 213.497 Q 1377.602 212.47 1375.122 211.891 Q 1369.857 210.66 1362.31 210.124 A 165.043 165.043 0 0 0 1354.395 209.767 A 122.188 122.188 0 0 0 1351.709 209.732 Q 1344.356 209.721 1338.934 210.662 A 38.637 38.637 0 0 0 1334.546 211.671 Q 1327.148 213.868 1326.416 220.167 Z M 137.402 152.931 L 128.32 210.938 L 107.52 210.938 L 140.625 1.759 L 182.52 1.759 L 215.918 210.938 L 195.117 210.938 L 186.035 152.931 L 137.402 152.931 Z M 156.006 20.509 L 145.898 88.624 L 139.307 134.181 L 184.131 134.181 L 177.832 88.478 L 167.578 20.509 L 156.006 20.509 Z M 612.158 118.507 L 593.701 118.507 Q 594.222 113.95 594.222 108.235 A 130.231 130.231 0 0 0 594.214 106.788 A 1797.952 1797.952 0 0 1 594.182 103.675 Q 594.153 100.654 594.145 98.412 A 478.302 478.302 0 0 1 594.141 96.534 A 15.873 15.873 0 0 0 593.551 92.375 A 10.184 10.184 0 0 0 588.062 85.841 A 20.785 20.785 0 0 0 584.128 84.425 Q 579.809 83.295 573.32 83.009 A 105.946 105.946 0 0 0 568.652 82.911 A 103.505 103.505 0 0 0 562.262 83.094 Q 553.418 83.644 549.023 85.841 A 10.269 10.269 0 0 0 543.4 93.16 A 16.891 16.891 0 0 0 543.018 96.534 A 1078.324 1078.324 0 0 0 542.249 118.745 A 863.461 863.461 0 0 0 541.992 139.381 A 858.9 858.9 0 0 0 542.249 159.98 A 1062.449 1062.449 0 0 0 543.018 182.081 A 17.377 17.377 0 0 0 543.58 186.323 A 10.556 10.556 0 0 0 549.023 193.214 Q 554.883 196.29 568.506 196.29 A 93.909 93.909 0 0 0 575.138 196.073 Q 581.552 195.617 585.639 194.203 A 18.237 18.237 0 0 0 587.988 193.214 A 10.717 10.717 0 0 0 593.75 185.584 A 17.762 17.762 0 0 0 594.141 182.081 A 537.155 537.155 0 0 1 594.151 178.878 Q 594.168 176.011 594.214 172.486 A 97.561 97.561 0 0 0 594.222 171.219 Q 594.222 166.098 593.701 160.108 L 612.158 160.108 A 43.214 43.214 0 0 1 612.636 163.982 Q 612.859 166.76 612.817 169.996 Q 612.744 175.625 612.452 180.159 A 147.307 147.307 0 0 1 612.451 180.177 A 49.964 49.964 0 0 1 611.135 189.588 Q 609.828 194.893 607.299 198.889 A 23.804 23.804 0 0 1 601.685 205.079 A 28.847 28.847 0 0 1 593.753 209.258 Q 585.889 212.075 573.963 212.584 A 128.079 128.079 0 0 1 568.506 212.696 Q 548.598 212.696 538.255 207.201 A 25.869 25.869 0 0 1 534.888 205.079 A 25.038 25.038 0 0 1 526.424 193.451 Q 524.894 189.345 524.298 184.284 A 55.084 55.084 0 0 1 523.975 180.177 A 498.476 498.476 0 0 1 523.587 171.511 Q 523.306 163.844 523.169 154.688 A 979.105 979.105 0 0 1 523.059 140.003 A 993.827 993.827 0 0 1 523.169 125.245 A 892.67 892.67 0 0 1 523.385 114.684 Q 523.497 110.507 523.644 106.702 A 497.936 497.936 0 0 1 523.975 99.464 Q 524.457 87.793 529.099 80.504 A 23.609 23.609 0 0 1 535.034 74.122 Q 545.361 66.505 568.652 66.505 A 113.986 113.986 0 0 1 580.033 67.032 Q 594.501 68.489 601.978 73.976 Q 612.158 81.446 612.451 98.585 A 153.317 153.317 0 0 1 612.665 102.668 Q 612.749 104.752 612.792 107.058 A 257.375 257.375 0 0 1 612.817 108.619 Q 612.891 114.259 612.158 118.507 Z M 60.352 20.509 L 60.352 210.938 L 39.99 210.938 L 39.99 20.509 L 0 20.509 L 0 1.759 L 100.488 1.759 L 100.488 20.509 L 60.352 20.509 Z M 410.596 20.509 L 410.596 210.938 L 390.234 210.938 L 390.234 20.509 L 350.244 20.509 L 350.244 1.759 L 450.732 1.759 L 450.732 20.509 L 410.596 20.509 Z M 1010.449 210.938 L 960.791 210.938 L 960.791 1.759 L 1010.01 1.759 Q 1037.695 1.759 1050.146 10.255 A 28.356 28.356 0 0 1 1061.212 25.466 Q 1062.772 30.281 1063.207 36.164 A 60.735 60.735 0 0 1 1063.33 38.38 A 567.956 567.956 0 0 1 1063.66 48.899 Q 1063.879 59.025 1063.66 67.576 A 265.054 265.054 0 0 1 1063.33 75.733 A 29.565 29.565 0 0 1 1060.098 88.37 Q 1056.37 95.378 1048.405 99.463 A 45.3 45.3 0 0 1 1038.135 103.126 L 1038.135 108.106 A 55.622 55.622 0 0 1 1045.596 110.302 Q 1049.323 111.711 1052.218 113.56 A 24.048 24.048 0 0 1 1057.178 117.701 A 23.584 23.584 0 0 1 1062.173 126.752 Q 1063.234 130.231 1063.537 134.379 A 44.768 44.768 0 0 1 1063.623 135.938 Q 1064.355 146.192 1064.355 155.055 A 243.671 243.671 0 0 1 1064.172 164.301 A 310.889 310.889 0 0 1 1063.623 174.317 A 49.131 49.131 0 0 1 1062.082 185.176 Q 1060.202 192.198 1056.096 197.158 A 27.692 27.692 0 0 1 1050.366 202.369 Q 1039.021 210.132 1015.474 210.863 A 162.084 162.084 0 0 1 1010.449 210.938 Z M 1007.959 114.845 L 981.152 114.845 L 981.152 192.188 L 1010.449 192.188 A 97.718 97.718 0 0 0 1019.076 191.835 Q 1029.227 190.932 1034.912 187.721 Q 1042.175 183.619 1043.14 175.503 A 20.973 20.973 0 0 0 1043.262 174.024 Q 1044.727 155.421 1043.262 136.817 A 28.07 28.07 0 0 0 1042.31 130.305 A 17.055 17.055 0 0 0 1034.546 119.825 Q 1027.536 115.607 1013.33 114.961 A 118.439 118.439 0 0 0 1007.959 114.845 Z M 1010.01 20.509 L 981.152 20.509 L 981.152 96.095 L 1009.717 96.095 A 89.542 89.542 0 0 0 1018.319 95.711 Q 1026.93 94.877 1032.272 92.227 A 20.603 20.603 0 0 0 1034.473 90.968 A 18.338 18.338 0 0 0 1042.447 78.962 A 27.324 27.324 0 0 0 1042.969 75.147 A 188.344 188.344 0 0 0 1043.921 56.251 A 188.344 188.344 0 0 0 1042.969 37.354 A 16.138 16.138 0 0 0 1041.114 30.897 Q 1039.252 27.493 1035.594 25.249 A 20.072 20.072 0 0 0 1034.473 24.61 A 27.36 27.36 0 0 0 1028.789 22.458 Q 1021.523 20.509 1010.01 20.509 Z M 936.182 143.556 L 866.016 143.556 A 1219.102 1219.102 0 0 0 866.162 162.306 A 701.575 701.575 0 0 0 866.547 177 A 784.403 784.403 0 0 0 866.748 182.081 A 16.918 16.918 0 0 0 867.337 186.374 A 10.593 10.593 0 0 0 872.9 193.214 A 20.798 20.798 0 0 0 877.086 194.752 Q 881.454 195.9 887.982 196.191 A 105.495 105.495 0 0 0 892.676 196.29 A 95.842 95.842 0 0 0 898.984 196.098 Q 905.101 195.692 908.982 194.433 A 16.499 16.499 0 0 0 911.865 193.214 Q 917.322 190.198 917.993 182.396 A 24.085 24.085 0 0 0 918.018 182.081 A 136.418 136.418 0 0 0 918.168 178.276 Q 918.344 171.637 918.075 162.036 A 534.441 534.441 0 0 0 918.018 160.108 L 936.182 160.108 A 43.214 43.214 0 0 1 936.66 163.982 Q 936.883 166.76 936.841 169.996 Q 936.768 175.625 936.476 180.159 A 147.307 147.307 0 0 1 936.475 180.177 A 52.833 52.833 0 0 1 935.123 189.588 Q 932.644 199.723 926.001 205.079 A 26.827 26.827 0 0 1 918.337 209.248 Q 910.853 211.992 899.398 212.553 A 125.764 125.764 0 0 1 893.262 212.696 A 121.23 121.23 0 0 1 881.398 212.159 Q 866.349 210.673 858.765 205.079 Q 849.527 198.265 847.966 183.715 A 55.049 55.049 0 0 1 847.705 180.177 A 498.476 498.476 0 0 1 847.317 171.511 Q 847.037 163.844 846.899 154.688 A 979.105 979.105 0 0 1 846.79 140.003 A 993.827 993.827 0 0 1 846.899 125.245 A 892.67 892.67 0 0 1 847.116 114.684 Q 847.227 110.507 847.375 106.702 A 497.936 497.936 0 0 1 847.705 99.464 Q 848.196 87.581 853.131 80.241 A 23.823 23.823 0 0 1 859.058 74.122 A 32.528 32.528 0 0 1 867.656 69.864 Q 877.6 66.505 893.262 66.505 A 105.152 105.152 0 0 1 904.518 67.063 Q 915.897 68.293 922.817 72.231 A 25.306 25.306 0 0 1 925.488 73.976 Q 934.109 80.441 936.037 94.149 A 55.792 55.792 0 0 1 936.475 98.585 Q 936.744 103.306 937.014 114.488 A 1727.727 1727.727 0 0 1 937.061 116.456 A 224.628 224.628 0 0 1 937.119 121.618 Q 937.119 129.295 936.614 137.527 A 300.489 300.489 0 0 1 936.182 143.556 Z M 866.016 128.028 L 918.311 128.028 A 671.748 671.748 0 0 0 918.585 113.581 A 583.756 583.756 0 0 0 918.604 108.985 A 223.432 223.432 0 0 0 918.571 105.042 Q 918.466 99.114 918.018 96.534 A 15.641 15.641 0 0 0 917.045 92.084 A 11.461 11.461 0 0 0 911.719 86.061 A 19.312 19.312 0 0 0 907.585 84.434 Q 902.123 82.911 893.262 82.911 Q 879.053 82.911 872.974 86.061 Q 867.707 88.789 866.893 94.651 A 16.023 16.023 0 0 0 866.748 96.534 A 721.224 721.224 0 0 0 866.212 108.866 A 628.364 628.364 0 0 0 866.089 112.794 Q 865.869 120.558 866.016 128.028 Z M 1175.537 143.556 L 1105.371 143.556 A 1219.102 1219.102 0 0 0 1105.518 162.306 A 701.575 701.575 0 0 0 1105.902 177 A 784.403 784.403 0 0 0 1106.104 182.081 A 16.918 16.918 0 0 0 1106.692 186.374 A 10.593 10.593 0 0 0 1112.256 193.214 A 20.798 20.798 0 0 0 1116.441 194.752 Q 1120.809 195.9 1127.338 196.191 A 105.495 105.495 0 0 0 1132.031 196.29 A 95.842 95.842 0 0 0 1138.339 196.098 Q 1144.457 195.692 1148.337 194.433 A 16.499 16.499 0 0 0 1151.221 193.214 Q 1156.678 190.198 1157.348 182.396 A 24.085 24.085 0 0 0 1157.373 182.081 A 136.418 136.418 0 0 0 1157.523 178.276 Q 1157.699 171.637 1157.43 162.036 A 534.441 534.441 0 0 0 1157.373 160.108 L 1175.537 160.108 A 43.214 43.214 0 0 1 1176.015 163.982 Q 1176.238 166.76 1176.196 169.996 Q 1176.123 175.625 1175.831 180.159 A 147.307 147.307 0 0 1 1175.83 180.177 A 52.833 52.833 0 0 1 1174.479 189.588 Q 1172 199.723 1165.356 205.079 A 26.827 26.827 0 0 1 1157.693 209.248 Q 1150.208 211.992 1138.753 212.553 A 125.764 125.764 0 0 1 1132.617 212.696 A 121.23 121.23 0 0 1 1120.754 212.159 Q 1105.704 210.673 1098.12 205.079 Q 1088.882 198.265 1087.322 183.715 A 55.049 55.049 0 0 1 1087.061 180.177 A 498.476 498.476 0 0 1 1086.673 171.511 Q 1086.392 163.844 1086.255 154.688 A 979.105 979.105 0 0 1 1086.145 140.003 A 993.827 993.827 0 0 1 1086.255 125.245 A 892.67 892.67 0 0 1 1086.471 114.684 Q 1086.583 110.507 1086.73 106.702 A 497.936 497.936 0 0 1 1087.061 99.464 Q 1087.552 87.581 1092.487 80.241 A 23.823 23.823 0 0 1 1098.413 74.122 A 32.528 32.528 0 0 1 1107.012 69.864 Q 1116.956 66.505 1132.617 66.505 A 105.152 105.152 0 0 1 1143.874 67.063 Q 1155.253 68.293 1162.172 72.231 A 25.306 25.306 0 0 1 1164.844 73.976 Q 1173.465 80.441 1175.393 94.149 A 55.792 55.792 0 0 1 1175.83 98.585 Q 1176.1 103.306 1176.37 114.488 A 1727.727 1727.727 0 0 1 1176.416 116.456 A 224.628 224.628 0 0 1 1176.475 121.618 Q 1176.475 129.295 1175.969 137.527 A 300.489 300.489 0 0 1 1175.537 143.556 Z M 1105.371 128.028 L 1157.666 128.028 A 671.748 671.748 0 0 0 1157.941 113.581 A 583.756 583.756 0 0 0 1157.959 108.985 A 223.432 223.432 0 0 0 1157.927 105.042 Q 1157.822 99.114 1157.373 96.534 A 15.641 15.641 0 0 0 1156.401 92.084 A 11.461 11.461 0 0 0 1151.074 86.061 A 19.312 19.312 0 0 0 1146.94 84.434 Q 1141.478 82.911 1132.617 82.911 Q 1118.408 82.911 1112.329 86.061 Q 1107.063 88.789 1106.249 94.651 A 16.023 16.023 0 0 0 1106.104 96.534 A 721.224 721.224 0 0 0 1105.568 108.866 A 628.364 628.364 0 0 0 1105.444 112.794 Q 1105.225 120.558 1105.371 128.028 Z M 769.189 95.802 L 769.189 210.938 L 750.293 210.938 L 750.293 68.409 L 769.189 68.409 L 769.189 81.739 L 773.291 81.739 Q 777.1 74.415 783.398 70.46 A 24.842 24.842 0 0 1 791.395 67.275 Q 794.934 66.505 799.072 66.505 A 42.585 42.585 0 0 1 806.783 67.157 Q 815.157 68.701 819.946 73.902 Q 826.098 80.583 826.694 96.045 A 88.803 88.803 0 0 1 826.758 99.464 A 130.514 130.514 0 0 1 826.717 102.636 Q 826.682 104.044 826.619 105.594 A 242.147 242.147 0 0 1 826.465 108.839 Q 826.191 113.899 825.662 117.937 A 83.81 83.81 0 0 1 825.586 118.507 L 807.422 118.507 A 11.224 11.224 0 0 0 807.555 117.637 Q 807.733 116.126 807.788 113.38 L 807.935 106.056 Q 808.008 102.394 808.008 101.075 A 50.231 50.231 0 0 0 807.786 96.161 Q 807.303 91.267 805.767 88.374 A 9.225 9.225 0 0 0 804.346 86.353 Q 801.528 83.367 796.111 82.678 A 27.664 27.664 0 0 0 792.627 82.472 Q 775.488 82.472 769.189 95.802 Z M 491.895 1.759 L 491.895 210.938 L 471.533 210.938 L 471.533 1.759 L 491.895 1.759 Z M 668.335 212.184 Q 656.733 211.015 649.696 207.183 A 24.399 24.399 0 0 1 645.703 204.493 Q 635.889 196.29 635.156 177.247 A 355.627 355.627 0 0 1 634.424 165.803 A 478.575 478.575 0 0 1 633.984 153.15 A 602.493 602.493 0 0 1 633.838 139.839 A 617.531 617.531 0 0 1 633.984 126.417 A 493.022 493.022 0 0 1 634.424 113.563 A 364.677 364.677 0 0 1 635.156 101.954 A 60.183 60.183 0 0 1 636.292 92.1 Q 638.67 80.604 645.776 74.708 A 28.364 28.364 0 0 1 654.096 70.08 Q 662.194 67.074 674.556 66.596 A 125.094 125.094 0 0 1 679.395 66.505 A 111.588 111.588 0 0 1 690.504 67.018 Q 705.817 68.556 713.013 74.708 A 25.764 25.764 0 0 1 719.975 84.573 Q 722.945 91.689 723.34 101.954 A 355.627 355.627 0 0 1 724.072 113.398 A 478.575 478.575 0 0 1 724.512 126.051 A 601.66 601.66 0 0 1 724.658 139.344 A 611.658 611.658 0 0 1 724.512 152.711 A 497.151 497.151 0 0 1 724.072 165.547 A 378.087 378.087 0 0 1 723.34 177.247 A 60.943 60.943 0 0 1 722.176 187.284 Q 719.834 198.536 713.013 204.42 Q 704.734 211.561 685.712 212.541 A 123.011 123.011 0 0 1 679.395 212.696 A 110.764 110.764 0 0 1 668.335 212.184 Z M 679.395 196.29 A 88.115 88.115 0 0 0 685.648 196.084 Q 691.815 195.643 695.764 194.261 A 16.664 16.664 0 0 0 698.584 192.994 A 11.812 11.812 0 0 0 704.386 184.786 A 18.3 18.3 0 0 0 704.736 182.081 A 747.849 747.849 0 0 0 705.835 160.035 A 593.621 593.621 0 0 0 706.201 139.601 A 593.621 593.621 0 0 0 705.835 119.166 A 747.849 747.849 0 0 0 704.736 97.12 A 17.631 17.631 0 0 0 703.963 92.717 A 11.327 11.327 0 0 0 698.73 86.134 Q 694.265 83.548 684.52 83.037 A 98.085 98.085 0 0 0 679.395 82.911 A 93.512 93.512 0 0 0 673.018 83.113 Q 666.833 83.537 662.905 84.857 A 16.441 16.441 0 0 0 659.985 86.134 A 11.527 11.527 0 0 0 654.398 93.73 A 18.441 18.441 0 0 0 653.906 97.12 A 886.552 886.552 0 0 0 652.899 119.184 A 708.097 708.097 0 0 0 652.515 139.674 Q 652.441 159.376 653.906 182.081 A 15.678 15.678 0 0 0 654.704 186.609 A 11.349 11.349 0 0 0 660.132 192.994 A 19.926 19.926 0 0 0 664.434 194.697 Q 668.856 195.935 675.438 196.211 A 94.518 94.518 0 0 0 679.395 196.29 Z" vector-effect="non-scaling-stroke"/></g></svg>