<svg width="3622.67509765625px" height="346.4px" xmlns="http://www.w3.org/2000/svg" viewBox="-1561.337548828125 -98.19999999999999 3622.67509765625 346.4" style="background: rgb(253, 253, 253);" preserveAspectRatio="xMidYMid"><defs><filter id="editing-hole" x="-100%" y="-100%" width="300%" height="300%"><feFlood flood-color="#bbcedd" result="black"></feFlood><feMorphology operator="dilate" radius="2" in="SourceGraphic" result="erode"></feMorphology><feGaussianBlur in="erode" stdDeviation="4" result="blur"></feGaussianBlur><feOffset in="blur" dx="2" dy="2" result="offset"></feOffset><feComposite operator="atop" in="offset" in2="black" result="merge"></feComposite><feComposite operator="in" in="merge" in2="SourceGraphic" result="inner-shadow"></feComposite></filter></defs><g filter="url(#editing-hole)"><g transform="translate(-1070.510048866272, 145.01999282836914)"><path d="M5.96-120.02L5.96-140.04L117.97-140.04L117.97-120.02L71.97-120.02L71.97 0L51.95 0L51.95-120.02L5.96-120.02ZM167.97-140.04L187.99-140.04L241.99 0L221.97 0L209.57-32.23L146.39-32.23L133.98 0L113.96 0L167.97-140.04ZM178.03-113.96L154.00-52.25L201.86-52.25L178.03-113.96ZM266.02-20.02L266.02-120.02L266.02-120.02Q266.02-124.12 267.58-127.78L267.58-127.78L267.58-127.78Q269.14-131.45 271.88-134.13L271.88-134.13L271.88-134.13Q274.61-136.82 278.27-138.43L278.27-138.43L278.27-138.43Q281.93-140.04 286.04-140.04L286.04-140.04L362.01-140.04L362.01-140.04Q366.11-140.04 369.78-138.43L369.78-138.43L369.78-138.43Q373.44-136.82 376.17-134.13L376.17-134.13L376.17-134.13Q378.91-131.45 380.47-127.78L380.47-127.78L380.47-127.78Q382.03-124.12 382.03-120.02L382.03-120.02L382.03-101.95L362.01-101.95L362.01-120.02L286.04-120.02L286.04-20.02L362.01-20.02L362.01-37.99L382.03-37.99L382.03-20.02L382.03-20.02Q382.03-15.92 380.47-12.26L380.47-12.26L380.47-12.26Q378.91-8.59 376.17-5.86L376.17-5.86L376.17-5.86Q373.44-3.13 369.78-1.56L369.78-1.56L369.78-1.56Q366.11 0 362.01 0L362.01 0L286.04 0L286.04 0Q281.93 0 278.27-1.56L278.27-1.56L278.27-1.56Q274.61-3.13 271.88-5.86L271.88-5.86L271.88-5.86Q269.14-8.59 267.58-12.26L267.58-12.26L267.58-12.26Q266.02-15.92 266.02-20.02L266.02-20.02ZM402.05-120.02L402.05-140.04L514.06-140.04L514.06-120.02L468.07-120.02L468.07 0L448.05 0L448.05-120.02L402.05-120.02ZM538.09-140.04L558.11-140.04L558.11 0L538.09 0L538.09-140.04ZM594.04-20.02L594.04-120.02L594.04-120.02Q594.04-124.12 595.61-127.78L595.61-127.78L595.61-127.78Q597.17-131.45 599.90-134.13L599.90-134.13L599.90-134.13Q602.64-136.82 606.30-138.43L606.30-138.43L606.30-138.43Q609.96-140.04 614.06-140.04L614.06-140.04L690.04-140.04L690.04-140.04Q694.14-140.04 697.80-138.43L697.80-138.43L697.80-138.43Q701.46-136.82 704.20-134.13L704.20-134.13L704.20-134.13Q706.93-131.45 708.50-127.78L708.50-127.78L708.50-127.78Q710.06-124.12 710.06-120.02L710.06-120.02L710.06-101.95L690.04-101.95L690.04-120.02L614.06-120.02L614.06-20.02L690.04-20.02L690.04-37.99L710.06-37.99L710.06-20.02L710.06-20.02Q710.06-15.92 708.50-12.26L708.50-12.26L708.50-12.26Q706.93-8.59 704.20-5.86L704.20-5.86L704.20-5.86Q701.46-3.13 697.80-1.56L697.80-1.56L697.80-1.56Q694.14 0 690.04 0L690.04 0L614.06 0L614.06 0Q609.96 0 606.30-1.56L606.30-1.56L606.30-1.56Q602.64-3.13 599.90-5.86L599.90-5.86L599.90-5.86Q597.17-8.59 595.61-12.26L595.61-12.26L595.61-12.26Q594.04-15.92 594.04-20.02L594.04-20.02ZM784.08-140.04L804.10-140.04L858.11 0L838.09 0L825.68-32.23L762.50-32.23L750.10 0L730.08 0L784.08-140.04ZM794.14-113.96L770.12-52.25L817.97-52.25L794.14-113.96ZM882.13-140.04L902.15-140.04L902.15-20.02L974.12-20.02L974.12 0L882.13 0L882.13-140.04ZM1046.09-120.02L1046.09-140.04L1158.11-140.04L1158.11-120.02L1112.11-120.02L1112.11 0L1092.09 0L1092.09-120.02L1046.09-120.02ZM1208.11-140.04L1228.13-140.04L1282.13 0L1262.11 0L1249.71-32.23L1186.52-32.23L1174.12 0L1154.10 0L1208.11-140.04ZM1218.16-113.96L1194.14-52.25L1241.99-52.25L1218.16-113.96ZM1306.15-140.04L1326.17-140.04L1326.17-20.02L1398.14-20.02L1398.14 0L1306.15 0L1306.15-140.04ZM1422.17-140.04L1442.19-140.04L1442.19-79.59L1508.98-140.04L1537.21-140.04L1461.43-71.39L1540.23 0L1512.01 0L1442.19-62.99L1442.19 0L1422.17 0L1422.17-140.04ZM1646.39-59.96L1578.42-59.96L1578.42-59.96Q1574.32-59.96 1570.65-61.57L1570.65-61.57L1570.65-61.57Q1566.99-63.18 1564.26-65.87L1564.26-65.87L1564.26-65.87Q1561.52-68.55 1559.96-72.22L1559.96-72.22L1559.96-72.22Q1558.40-75.88 1558.40-79.98L1558.40-79.98L1558.40-120.02L1558.40-120.02Q1558.40-124.12 1559.96-127.78L1559.96-127.78L1559.96-127.78Q1561.52-131.45 1564.26-134.13L1564.26-134.13L1564.26-134.13Q1566.99-136.82 1570.65-138.43L1570.65-138.43L1570.65-138.43Q1574.32-140.04 1578.42-140.04L1578.42-140.04L1646.39-140.04L1646.39-140.04Q1650.49-140.04 1654.15-138.43L1654.15-138.43L1654.15-138.43Q1657.81-136.82 1660.55-134.13L1660.55-134.13L1660.55-134.13Q1663.28-131.45 1664.84-127.78L1664.84-127.78L1664.84-127.78Q1666.41-124.12 1666.41-120.02L1666.41-120.02L1666.41-101.95L1646.39-101.95L1646.39-120.02L1578.42-120.02L1578.42-79.98L1646.39-79.98L1646.39-79.98Q1650.49-79.98 1654.15-78.42L1654.15-78.42L1654.15-78.42Q1657.81-76.86 1660.55-74.12L1660.55-74.12L1660.55-74.12Q1663.28-71.39 1664.84-67.72L1664.84-67.72L1664.84-67.72Q1666.41-64.06 1666.41-59.96L1666.41-59.96L1666.41-20.02L1666.41-20.02Q1666.41-15.92 1664.84-12.26L1664.84-12.26L1664.84-12.26Q1663.28-8.59 1660.55-5.86L1660.55-5.86L1660.55-5.86Q1657.81-3.13 1654.15-1.56L1654.15-1.56L1654.15-1.56Q1650.49 0 1646.39 0L1646.39 0L1576.46 0L1576.46 0Q1572.36 0 1568.70-1.56L1568.70-1.56L1568.70-1.56Q1565.04-3.13 1562.30-5.86L1562.30-5.86L1562.30-5.86Q1559.57-8.59 1558.01-12.26L1558.01-12.26L1558.01-12.26Q1556.45-15.92 1556.45-20.02L1556.45-20.02L1556.45-37.99L1576.46-37.99L1576.46-20.02L1646.39-20.02L1646.39-59.96ZM1884.67-19.63L1884.67 0L1878.42 0L1878.42 0Q1858.30 0 1850.20-11.62L1850.20-11.62L1850.20-11.62Q1841.89 0 1822.07 0L1822.07 0L1792.48 0L1792.48 0Q1758.40 0 1758.40-33.98L1758.40-33.98L1758.40-41.02L1758.40-41.02Q1758.40-54.10 1763.09-62.01L1763.09-62.01L1763.09-62.01Q1767.77-69.92 1776.66-72.56L1776.66-72.56L1776.66-72.56Q1768.75-76.27 1764.60-83.94L1764.60-83.94L1764.60-83.94Q1760.45-91.60 1760.45-103.42L1760.45-103.42L1760.45-105.96L1760.45-105.96Q1760.45-140.04 1794.43-140.04L1794.43-140.04L1824.02-140.04L1824.02-140.04Q1841.31-140.04 1849.66-131.64L1849.66-131.64L1849.66-131.64Q1858.01-123.24 1858.01-105.96L1858.01-105.96L1858.01-97.56L1838.48-97.56L1838.48-104.98L1838.48-104.98Q1838.48-112.99 1834.96-116.70L1834.96-116.70L1834.96-116.70Q1831.45-120.41 1823.44-120.41L1823.44-120.41L1795.02-120.41L1795.02-120.41Q1787.11-120.41 1783.59-116.70L1783.59-116.70L1783.59-116.70Q1780.08-112.99 1780.08-104.98L1780.08-104.98L1780.08-95.80L1780.08-95.80Q1780.08-88.18 1783.25-84.52L1783.25-84.52L1783.25-84.52Q1786.43-80.86 1793.65-80.57L1793.65-80.57L1884.67-80.57L1884.67-61.04L1860.06-61.04L1860.06-34.96L1860.06-34.96Q1860.06-27.05 1863.57-23.34L1863.57-23.34L1863.57-23.34Q1867.09-19.63 1875-19.63L1875-19.63L1884.67-19.63ZM1825.39-19.63L1825.39-19.63L1825.39-19.63Q1833.40-19.63 1836.91-23.34L1836.91-23.34L1836.91-23.34Q1840.43-27.05 1840.43-34.96L1840.43-34.96L1840.43-61.04L1793.07-61.04L1793.07-61.04Q1785.06-61.04 1781.54-57.42L1781.54-57.42L1781.54-57.42Q1778.03-53.81 1778.03-45.80L1778.03-45.80L1778.03-34.96L1778.03-34.96Q1778.03-27.05 1781.54-23.34L1781.54-23.34L1781.54-23.34Q1785.06-19.63 1793.07-19.63L1793.07-19.63L1825.39-19.63ZM2014.55-140.04L2034.57-140.04L2088.57 0L2068.55 0L2056.15-32.23L1992.97-32.23L1980.57 0L1960.55 0L2014.55-140.04ZM2024.61-113.96L2000.59-52.25L2048.44-52.25L2024.61-113.96ZM2112.60-140.04L2132.62-140.04L2132.62 0L2112.60 0L2112.60-140.04ZM2246.78 0L2240.82 0L2188.57-102.64L2188.57 0L2168.55 0L2168.55-140.04L2190.43-140.04L2243.75-34.57L2297.17-140.04L2318.95-140.04L2318.95 0L2299.02 0L2299.02-102.64L2246.78 0ZM2518.95-120.02L2518.95-20.02L2518.95-20.02Q2518.95-15.92 2517.38-12.26L2517.38-12.26L2517.38-12.26Q2515.82-8.59 2513.09-5.86L2513.09-5.86L2513.09-5.86Q2510.35-3.13 2506.69-1.56L2506.69-1.56L2506.69-1.56Q2503.03 0 2498.93 0L2498.93 0L2434.96 0L2434.96 0Q2430.86 0 2427.20-1.56L2427.20-1.56L2427.20-1.56Q2423.54-3.13 2420.80-5.86L2420.80-5.86L2420.80-5.86Q2418.07-8.59 2416.50-12.26L2416.50-12.26L2416.50-12.26Q2414.94-15.92 2414.94-20.02L2414.94-20.02L2414.94-37.99L2434.96-37.99L2434.96-20.02L2498.93-20.02L2498.93-59.96L2434.96-59.96L2434.96-59.96Q2430.86-59.96 2427.20-61.57L2427.20-61.57L2427.20-61.57Q2423.54-63.18 2420.80-65.87L2420.80-65.87L2420.80-65.87Q2418.07-68.55 2416.50-72.22L2416.50-72.22L2416.50-72.22Q2414.94-75.88 2414.94-79.98L2414.94-79.98L2414.94-120.02L2414.94-120.02Q2414.94-124.12 2416.50-127.78L2416.50-127.78L2416.50-127.78Q2418.07-131.45 2420.80-134.13L2420.80-134.13L2420.80-134.13Q2423.54-136.82 2427.20-138.43L2427.20-138.43L2427.20-138.43Q2430.86-140.04 2434.96-140.04L2434.96-140.04L2498.93-140.04L2498.93-140.04Q2503.03-140.04 2506.69-138.43L2506.69-138.43L2506.69-138.43Q2510.35-136.82 2513.09-134.13L2513.09-134.13L2513.09-134.13Q2515.82-131.45 2517.38-127.78L2517.38-127.78L2517.38-127.78Q2518.95-124.12 2518.95-120.02L2518.95-120.02ZM2434.96-79.98L2498.93-79.98L2498.93-120.02L2434.96-120.02L2434.96-79.98ZM2550.98-19.24L2615.82-19.24L2615.82-43.36L2570.21-43.36L2570.21-43.36Q2566.21-43.36 2562.70-44.87L2562.70-44.87L2562.70-44.87Q2559.18-46.39 2556.59-48.97L2556.59-48.97L2556.59-48.97Q2554.00-51.56 2552.49-55.08L2552.49-55.08L2552.49-55.08Q2550.98-58.59 2550.98-62.60L2550.98-62.60L2550.98-84.77L2550.98-84.77Q2550.98-88.77 2552.49-92.29L2552.49-92.29L2552.49-92.29Q2554.00-95.80 2556.59-98.39L2556.59-98.39L2556.59-98.39Q2559.18-100.98 2562.70-102.49L2562.70-102.49L2562.70-102.49Q2566.21-104.00 2570.21-104.00L2570.21-104.00L2631.05-104.00L2631.05-84.77L2570.21-84.77L2570.21-62.60L2615.82-62.60L2615.82-62.60Q2619.82-62.60 2623.29-61.08L2623.29-61.08L2623.29-61.08Q2626.76-59.57 2629.39-56.98L2629.39-56.98L2629.39-56.98Q2632.03-54.39 2633.54-50.88L2633.54-50.88L2633.54-50.88Q2635.06-47.36 2635.06-43.36L2635.06-43.36L2635.06-19.24L2635.06-19.24Q2635.06-15.23 2633.54-11.72L2633.54-11.72L2633.54-11.72Q2632.03-8.20 2629.39-5.62L2629.39-5.62L2629.39-5.62Q2626.76-3.03 2623.29-1.51L2623.29-1.51L2623.29-1.51Q2619.82 0 2615.82 0L2615.82 0L2550.98 0L2550.98-19.24Z" fill="#000000"></path></g></g><style>text {
  font-size: 64px;
  font-family: Arial Black;
  dominant-baseline: central;
  text-anchor: middle;
}</style></svg>