<svg width="1421.269" height="212.99" viewBox="0 0 1421.269 212.99" xmlns="http://www.w3.org/2000/svg"><g id="svgGroup" stroke-linecap="round" fill-rule="nonzero" font-size="9pt" stroke="#000" stroke-width="0.25mm" fill="#000" style="stroke:#000;stroke-width:0.25mm;fill:#000"><path d="M 1132.324 149.562 L 1132.324 211.085 L 1111.816 211.085 L 1111.816 1.905 L 1148.584 1.905 L 1162.5 86.28 L 1170.996 191.603 L 1176.563 191.603 L 1184.912 86.28 L 1198.975 1.905 L 1235.596 1.905 L 1235.596 211.085 L 1215.088 211.085 L 1215.088 149.562 L 1218.604 20.655 L 1212.305 20.655 L 1197.656 150.733 L 1186.963 210.353 L 1160.449 210.353 L 1149.902 150.733 L 1135.107 20.655 L 1128.955 20.655 L 1132.324 149.562 Z M 337.207 75.587 L 316.846 75.587 A 758.471 758.471 0 0 0 317.084 65.626 A 976.915 976.915 0 0 0 317.212 54.786 Q 317.285 43.507 316.846 33.985 A 17.108 17.108 0 0 0 316.005 28.768 A 12.866 12.866 0 0 0 309.595 21.388 A 23.142 23.142 0 0 0 304.782 19.547 Q 299.579 18.124 291.587 17.73 A 132.979 132.979 0 0 0 285.059 17.579 A 107.146 107.146 0 0 0 277.647 17.817 Q 270.334 18.326 265.638 19.924 A 20.242 20.242 0 0 0 262.28 21.388 A 13.495 13.495 0 0 0 255.418 30.865 A 20.292 20.292 0 0 0 255.029 33.985 Q 252.686 106.495 255.029 179.151 A 17.839 17.839 0 0 0 256.074 184.503 A 13.514 13.514 0 0 0 262.28 191.676 A 21.886 21.886 0 0 0 267.082 193.617 Q 272.136 195.065 279.818 195.433 A 116.012 116.012 0 0 0 285.352 195.558 A 136.922 136.922 0 0 0 293.825 195.315 Q 301.916 194.811 307.065 193.26 A 22.71 22.71 0 0 0 311.06 191.676 Q 317.65 188.218 318.718 180.981 A 19.212 19.212 0 0 0 318.896 179.151 A 264.393 264.393 0 0 0 319.121 170.504 Q 319.18 164.692 319.009 158.44 A 363.357 363.357 0 0 0 318.97 157.105 A 2083.597 2083.597 0 0 0 318.585 145.698 A 1690.967 1690.967 0 0 0 318.164 135.06 L 338.965 135.06 A 358.102 358.102 0 0 1 339.844 155.348 A 229.834 229.834 0 0 1 339.868 158.703 A 243.109 243.109 0 0 1 339.258 175.782 A 51.848 51.848 0 0 1 337.71 186.617 Q 335.947 193.354 332.26 198.227 A 27.707 27.707 0 0 1 325.854 204.347 Q 314.671 212.064 291.164 212.89 A 165.602 165.602 0 0 1 285.352 212.989 A 131.707 131.707 0 0 1 272.185 212.379 Q 255.471 210.694 246.973 204.347 A 28.095 28.095 0 0 1 237.47 191.288 Q 235.71 186.572 235.036 180.724 A 63.626 63.626 0 0 1 234.668 175.782 A 1821.865 1821.865 0 0 1 233.35 106.495 A 1821.865 1821.865 0 0 1 234.668 37.208 A 46.757 46.757 0 0 1 236.47 25.75 A 31.86 31.86 0 0 1 247.119 9.596 Q 258.838 0.147 285.059 0.147 A 135.154 135.154 0 0 1 298.778 0.794 Q 315.543 2.511 324.536 8.79 A 28.395 28.395 0 0 1 335.323 23.755 Q 337.276 29.728 337.5 37.354 Q 337.793 42.188 337.793 49.293 Q 337.793 56.397 337.573 63.502 Q 337.422 68.386 337.306 72.267 A 5592.272 5592.272 0 0 0 337.207 75.587 Z M 627.246 75.587 L 606.885 75.587 A 758.471 758.471 0 0 0 607.123 65.626 A 976.915 976.915 0 0 0 607.251 54.786 Q 607.324 43.507 606.885 33.985 A 17.108 17.108 0 0 0 606.044 28.768 A 12.866 12.866 0 0 0 599.634 21.388 A 23.142 23.142 0 0 0 594.821 19.547 Q 589.618 18.124 581.626 17.73 A 132.979 132.979 0 0 0 575.098 17.579 A 107.146 107.146 0 0 0 567.686 17.817 Q 560.373 18.326 555.677 19.924 A 20.242 20.242 0 0 0 552.319 21.388 A 13.495 13.495 0 0 0 545.457 30.865 A 20.292 20.292 0 0 0 545.068 33.985 Q 542.725 106.495 545.068 179.151 A 17.839 17.839 0 0 0 546.113 184.503 A 13.514 13.514 0 0 0 552.319 191.676 A 21.886 21.886 0 0 0 557.121 193.617 Q 562.175 195.065 569.857 195.433 A 116.012 116.012 0 0 0 575.391 195.558 A 136.922 136.922 0 0 0 583.864 195.315 Q 591.956 194.811 597.104 193.26 A 22.71 22.71 0 0 0 601.099 191.676 Q 607.689 188.218 608.757 180.981 A 19.212 19.212 0 0 0 608.936 179.151 A 264.393 264.393 0 0 0 609.16 170.504 Q 609.219 164.692 609.048 158.44 A 363.357 363.357 0 0 0 609.009 157.105 A 2083.597 2083.597 0 0 0 608.624 145.698 A 1690.967 1690.967 0 0 0 608.203 135.06 L 629.004 135.06 A 358.102 358.102 0 0 1 629.883 155.348 A 229.834 229.834 0 0 1 629.907 158.703 A 243.109 243.109 0 0 1 629.297 175.782 A 51.848 51.848 0 0 1 627.749 186.617 Q 625.986 193.354 622.299 198.227 A 27.707 27.707 0 0 1 615.894 204.347 Q 604.71 212.064 581.203 212.89 A 165.602 165.602 0 0 1 575.391 212.989 A 131.707 131.707 0 0 1 562.224 212.379 Q 545.51 210.694 537.012 204.347 A 28.095 28.095 0 0 1 527.509 191.288 Q 525.749 186.572 525.075 180.724 A 63.626 63.626 0 0 1 524.707 175.782 A 1821.865 1821.865 0 0 1 523.389 106.495 A 1821.865 1821.865 0 0 1 524.707 37.208 A 46.757 46.757 0 0 1 526.509 25.75 A 31.86 31.86 0 0 1 537.158 9.596 Q 548.877 0.147 575.098 0.147 A 135.154 135.154 0 0 1 588.817 0.794 Q 605.582 2.511 614.575 8.79 A 28.395 28.395 0 0 1 625.362 23.755 Q 627.315 29.728 627.539 37.354 Q 627.832 42.188 627.832 49.293 Q 627.832 56.397 627.612 63.502 Q 627.461 68.386 627.345 72.267 A 5592.272 5592.272 0 0 0 627.246 75.587 Z M 1322.314 144.435 L 1342.676 144.435 A 312.172 312.172 0 0 0 1342.236 161.134 A 346.165 346.165 0 0 0 1342.676 178.419 A 15.837 15.837 0 0 0 1343.877 184.11 Q 1345.572 188.078 1349.634 190.577 A 20.724 20.724 0 0 0 1354.385 192.651 Q 1360.952 194.679 1371.973 194.679 A 81.197 81.197 0 0 0 1379.237 194.378 Q 1386.204 193.749 1390.621 191.81 A 17.982 17.982 0 0 0 1392.847 190.65 A 13.641 13.641 0 0 0 1399.395 180.998 A 18.885 18.885 0 0 0 1399.658 178.419 A 524.798 524.798 0 0 0 1400.391 164.814 A 665.467 665.467 0 0 0 1400.83 150.074 A 1637.502 1637.502 0 0 0 1401.118 122.445 A 1814.536 1814.536 0 0 0 1401.123 118.36 L 1395.557 118.36 A 18.493 18.493 0 0 1 1391.928 121.879 Q 1388.289 124.61 1382.537 126.75 A 58.501 58.501 0 0 1 1382.446 126.783 Q 1373.145 130.226 1361.865 130.226 A 77.566 77.566 0 0 1 1350.231 129.41 Q 1338.432 127.616 1331.03 121.876 A 26.999 26.999 0 0 1 1322.423 109.987 Q 1320.691 105.516 1319.977 99.961 A 61.631 61.631 0 0 1 1319.531 94.483 A 573.05 573.05 0 0 1 1319.332 88.42 Q 1319.258 85.748 1319.198 82.833 A 994.824 994.824 0 0 1 1319.092 76.759 A 934.475 934.475 0 0 1 1318.994 63.217 A 954.78 954.78 0 0 1 1319.019 56.397 A 464.716 464.716 0 0 1 1319.153 47.902 Q 1319.251 44.036 1319.415 40.613 A 255.144 255.144 0 0 1 1319.531 38.38 Q 1320.026 24.519 1325.775 15.944 A 27.729 27.729 0 0 1 1332.495 8.937 A 37.573 37.573 0 0 1 1342.627 3.849 Q 1353.941 0.001 1371.533 0.001 Q 1393.617 0.001 1404.899 6.557 A 27.513 27.513 0 0 1 1408.374 8.937 A 28.153 28.153 0 0 1 1416.815 20.765 Q 1418.635 25.366 1419.432 31.096 A 66.792 66.792 0 0 1 1420.02 38.38 A 1770.613 1770.613 0 0 1 1421.269 104.166 A 1654.723 1654.723 0 0 1 1421.265 107.74 Q 1421.191 141.651 1420.02 174.903 A 59.815 59.815 0 0 1 1418.793 185.714 Q 1417.534 191.581 1415.016 196.084 A 26.792 26.792 0 0 1 1408.228 204.127 Q 1397.737 212.424 1375.371 212.953 A 131.204 131.204 0 0 1 1372.266 212.989 A 121.992 121.992 0 0 1 1359.069 212.327 Q 1345.372 210.831 1337.089 205.958 A 30.208 30.208 0 0 1 1334.326 204.127 A 28.291 28.291 0 0 1 1324.593 190.518 Q 1322.214 183.811 1322.021 174.903 A 195.218 195.218 0 0 1 1321.971 172.279 Q 1321.907 167.254 1322.021 159.815 A 2775.376 2775.376 0 0 1 1322.095 155.284 Q 1322.189 149.737 1322.284 145.711 A 827.142 827.142 0 0 1 1322.314 144.435 Z M 1367.285 111.622 A 83.112 83.112 0 0 0 1376.994 111.086 Q 1382.084 110.487 1386.4 109.215 A 42.956 42.956 0 0 0 1390.43 107.813 A 27.162 27.162 0 0 0 1394.842 105.573 Q 1397.161 104.09 1398.652 102.291 A 11.34 11.34 0 0 0 1401.123 97.12 A 1662.62 1662.62 0 0 0 1400.537 66.139 A 237873.495 237873.495 0 0 1 1399.658 34.864 A 13.718 13.718 0 0 0 1391.147 21.856 Q 1384.936 18.859 1374.193 18.505 A 89.863 89.863 0 0 0 1371.24 18.458 A 88.85 88.85 0 0 0 1360.681 19.029 Q 1349.863 20.332 1344.674 24.609 A 12.799 12.799 0 0 0 1339.893 34.864 A 488.492 488.492 0 0 0 1339.704 41.298 Q 1339.572 46.986 1339.526 53.761 A 1071.968 1071.968 0 0 0 1339.502 61.004 A 1093.85 1093.85 0 0 0 1339.6 75.587 A 6620.386 6620.386 0 0 0 1339.737 85.372 Q 1339.805 89.968 1339.873 94.058 A 3864.634 3864.634 0 0 0 1339.893 95.216 Q 1340.771 111.622 1367.285 111.622 Z M 137.402 153.077 L 128.32 211.085 L 107.52 211.085 L 140.625 1.905 L 182.52 1.905 L 215.918 211.085 L 195.117 211.085 L 186.035 153.077 L 137.402 153.077 Z M 156.006 20.655 L 145.898 88.771 L 139.307 134.327 L 184.131 134.327 L 177.832 88.624 L 167.578 20.655 L 156.006 20.655 Z M 674.854 153.077 L 665.771 211.085 L 644.971 211.085 L 678.076 1.905 L 719.971 1.905 L 753.369 211.085 L 732.568 211.085 L 723.486 153.077 L 674.854 153.077 Z M 693.457 20.655 L 683.35 88.771 L 676.758 134.327 L 721.582 134.327 L 715.283 88.624 L 705.029 20.655 L 693.457 20.655 Z M 954.639 153.077 L 945.557 211.085 L 924.756 211.085 L 957.861 1.905 L 999.756 1.905 L 1033.154 211.085 L 1012.354 211.085 L 1003.271 153.077 L 954.639 153.077 Z M 973.242 20.655 L 963.135 88.771 L 956.543 134.327 L 1001.367 134.327 L 995.068 88.624 L 984.814 20.655 L 973.242 20.655 Z M 60.352 20.655 L 60.352 211.085 L 39.99 211.085 L 39.99 20.655 L 0 20.655 L 0 1.905 L 100.488 1.905 L 100.488 20.655 L 60.352 20.655 Z M 410.596 20.655 L 410.596 211.085 L 390.234 211.085 L 390.234 20.655 L 350.244 20.655 L 350.244 1.905 L 450.732 1.905 L 450.732 20.655 L 410.596 20.655 Z M 857.666 192.335 L 857.666 211.085 L 772.559 211.085 L 772.559 1.905 L 792.92 1.905 L 792.92 192.335 L 857.666 192.335 Z M 491.895 1.905 L 491.895 211.085 L 471.533 211.085 L 471.533 1.905 L 491.895 1.905 Z M 1078.857 1.905 L 1078.857 211.085 L 1058.496 211.085 L 1058.496 1.905 L 1078.857 1.905 Z" vector-effect="non-scaling-stroke"/></g></svg>